<svg xmlns="http://www.w3.org/2000/svg" viewBox="0 0 512 512"><title>Volume</title><g id="Volume"><g id="Volume-2" data-name="Volume"><path d="M256,73.82C155.3831,73.82,73.8207,155.4,73.8207,256a182.1793,182.1793,0,1,0,364.3586,0C438.1793,155.3917,356.6087,73.82,256,73.82Zm-.8433,247.8159a10.843,10.843,0,0,1-17.5347,8.5437l-35.5778-27.8613a21.4626,21.4626,0,0,1-5.1418.65H161.2628a21.1708,21.1708,0,0,1-21.1734-21.1635V220.0522a21.1651,21.1651,0,0,1,21.1734-21.1635h35.6391a21.2215,21.2215,0,0,1,5.9679.8613l34.7517-27.2376a10.841,10.841,0,0,1,17.5347,8.5338v140.59Zm35.604-44.5428-11.8908-11.8917a22.5564,22.5564,0,0,0-.8793-27.8262l11.7946-11.8035a39.1665,39.1665,0,0,1,.9755,51.5214Zm15.408,15.4161a60.93,60.93,0,0,0-.9755-82.3356L316.9961,198.37a77.6138,77.6138,0,0,1,.9927,105.9516Zm40.1742,39.8232-11.7945-11.8035a100.7227,100.7227,0,0,0-1.0017-138.375L345.35,170.3587a117.4006,117.4006,0,0,1,.9927,161.9739Z"/></g></g></svg>